PathFileType	4	(X/Y/Z)	pose_F01_0-94.trc
DataRate	CameraRate	NumFrames	NumMarkers	Units	OrigDataRate	OrigDataStartFrame	OrigNumFrames
30	30	12	21	m	30	67	94
Frame#	Time	CHip			RHip			RKnee			RAnkle			RBigToe			RSmallToe			RHeel			LHip			LKnee			LAnkle			LBigToe			LSmallToe			LHeel			Neck			Nose			RShoulder			RElbow			RWrist			LShoulder			LElbow			LWrist			
		X1	Y1	Z1	X2	Y2	Z2	X3	Y3	Z3	X4	Y4	Z4	X5	Y5	Z5	X6	Y6	Z6	X7	Y7	Z7	X8	Y8	Z8	X9	Y9	Z9	X10	Y10	Z10	X11	Y11	Z11	X12	Y12	Z12	X13	Y13	Z13	X14	Y14	Z14	X15	Y15	Z15	X16	Y16	Z16	X17	Y17	Z17	X18	Y18	Z18	X19	Y19	Z19	X20	Y20	Z20	X21	Y21	Z21	
67	2.2333333333333334	-0.2529239719855122	1.8706199171134592	-0.5528008302458259	-0.2665046816505655	1.8693985338050783	-0.48170743640713465	-0.2952877413608756	1.7277774476439676	-0.39314781465347226	-0.3253419440551463	1.6376402949621547	-0.3925026617256155							-0.32988924717562884	1.6304664250452898	-0.4142773109011478	-0.23605361990876642	1.8724677028384755	-0.6175117227489417	-0.24114199228141076	1.7137564106833945	-0.5864711764244184													-0.259703583038261	2.0445653360740454	-0.5775244946528927	-0.24247399981184756	2.1007830829648757	-0.5534442785796895	-0.2781766949181107	2.038124210323863	-0.4894417663511242	-0.28786529684276585	2.0098175503623814	-0.3520581428984032	-0.2793613852015563	2.075758897727856	-0.3667860927288398	-0.2387995313301121	2.0515824481595972	-0.6653014437361128	-0.7728656142899525	1.9802462420148323	-0.09471795463462518	-0.20738164239691534	2.1292613453472606	-0.7024686530415236
68	2.2666666666666666	-0.25259071161345287	1.8585740334654828	-0.5426074368996406	-0.2652313152267068	1.855431877888345	-0.4763905416299156	-0.2952877413608756	1.7277774476439676	-0.39314781465347226	-0.3253419440551463	1.6376402949621547	-0.3925026617256155							-0.32988924717562884	1.6304664250452898	-0.4142773109011478	-0.23664364236622512	1.8627109015906527	-0.6109781527077586	-0.23893248615408694	1.7094487208434856	-0.5819212554121531													-0.26131586022027875	2.027644950499138	-0.5610999409779466	-0.24597272009479754	2.0891617195554595	-0.5362943553576234	-0.28232180188769385	2.022217636504717	-0.4657112902748416	-0.2863979605277227	1.965300363747831	-0.3707323596528831	-0.27613190064015875	2.039616742304472	-0.3067707899567441	-0.23943641931693013	2.035628179872702	-0.6543666801415395	-1.3590478425489618	1.8676407927804717	0.5205518812795098	-0.20671775050183674	2.1268728195641486	-0.6901802258101616
69	2.3	-0.2542112170935349	1.853036027682388	-0.53645249323794	-0.26866864788761136	1.847512675288635	-0.4680454500109835	-0.2952877413608756	1.7277774476439676	-0.39314781465347226	-0.3253419440551463	1.6376402949621547	-0.3925026617256155							-0.32988924717562884	1.6304664250452898	-0.4142773109011478	-0.23848174878252681	1.8588348841768676	-0.6049675605220023	-0.23672298002676312	1.705141031003577	-0.5773713343998879													-0.2669349829455162	2.0185982935440374	-0.533996989430974	-0.24819075063105472	2.0861573689168433	-0.5258064144225071	-0.2863806766808084	2.0113811117412257	-0.44325888358648924	-0.28304030656616724	1.9326032078293542	-0.36014294223942767	-0.2766436616311217	2.0015999956794914	-0.3060635121750623	-0.23953130703840617	2.0275894532448815	-0.6340799762480477	-1.410772736488743	1.8628135205614167	0.6038718912311203	-0.20605385860675818	2.1244842937810366	-0.6778917985787996
70	2.3333333333333335	-0.2579646214600987	1.8570028048913387	-0.5206152145587735	-0.27218801229813133	1.8522055601651184	-0.4519601098657948	-0.2952877413608756	1.7277774476439676	-0.39314781465347226	-0.3253419440551463	1.6376402949621547	-0.3925026617256155							-0.32988924717562884	1.6304664250452898	-0.4142773109011478	-0.24354819713091486	1.862424944399701	-0.5922900905754864	-0.23451347389943933	1.7008333411636682	-0.5728214133876226													-0.26893705910956245	2.0228059056202303	-0.5239755899891928	-0.2500864581877356	2.0882368180146362	-0.507428439898369	-0.28807250290273906	2.015130091414602	-0.4333323176716665	-0.27963959664893384	1.9533962442520525	-0.3315954972148868	-0.27745985677468066	2.028037301391748	-0.27979505311598524	-0.24512219322998668	2.0345368754828694	-0.61736446508097	-1.0096771919096537	1.9210780129779164	0.1882767501378541	-0.2053899667116796	2.122095767997925	-0.6656033713474375
71	2.3666666666666667	-0.26173823630796916	1.8718844199347304	-0.509577843264009	-0.2744793392822457	1.8662831453453521	-0.43771901848146255	-0.2952877413608756	1.7277774476439676	-0.39314781465347226	-0.3253419440551463	1.6376402949621547	-0.3925026617256155							-0.32988924717562884	1.6304664250452898	-0.4142773109011478	-0.2466563963678287	1.8775760714206864	-0.5778828298786728	-0.23843409771990984	1.710433467697331	-0.5783284812690127													-0.26772344234409257	2.035819388484684	-0.5064624510036725	-0.255441109996445	2.1043357286564435	-0.4790070468643081	-0.28913689006606214	2.02731529500155	-0.416409320263331	-0.2842943317210323	1.9921650327150193	-0.28194896592866214	-0.283992559199321	2.0646106334353083	-0.27344871791376396	-0.2481574122986845	2.0494389639146453	-0.6041780497614812	-0.6085816473305643	1.9793425053944163	-0.22731839095541206	-0.20472607481660102	2.119707242214813	-0.6533149441160755
72	2.4	-0.2622414979637699	1.8863723021505354	-0.48875013290510644	-0.2745834816341759	1.8818727144103051	-0.42559213526119327	-0.2952877413608756	1.7277774476439676	-0.39314781465347226	-0.3253419440551463	1.6376402949621547	-0.3925026617256155							-0.32988924717562884	1.6304664250452898	-0.4142773109011478	-0.24661896498278266	1.89299990277616	-0.5627048839823003	-0.24399400419375533	1.7158790851021868	-0.5740483366243836													-0.27109895650854593	2.050188379300467	-0.48761943787453244	-0.26049910234025914	2.11935923897109	-0.4576946375813046	-0.28895118854045376	2.038926165481995	-0.3957978620947515	-0.2878769514546833	2.0224624576745995	-0.2507980531901699	-0.29726961525571105	2.0898547720306135	-0.2749486166552567	-0.24727449286500489	2.0598506310234117	-0.5765887288386898	-0.20748610275147494	2.037606997810916	-0.6429135320486783	-0.20406218292152245	2.117318716431701	-0.6410265168847135
73	2.433333333333333	-0.2642294357628506	1.884924297805128	-0.4774488760625133	-0.2790635178011329	1.8801379234671063	-0.4068293993797768	-0.2952877413608756	1.7277774476439676	-0.39314781465347226	-0.3253419440551463	1.6376402949621547	-0.3925026617256155							-0.32988924717562884	1.6304664250452898	-0.4142773109011478	-0.25283080014846254	1.8910310252961575	-0.5470132619300583	-0.2495539106676008	1.7213247025070424	-0.5697681919797546													-0.2696003369601952	2.0527962737811025	-0.4673127273618248	-0.2620417291032518	2.1264067486630935	-0.4484754305101396	-0.2901641279603452	2.040621518443635	-0.37720289905062654	-0.2906787595170099	2.0385809088702365	-0.22218967163927916	-0.3006135926934344	2.0964189805172415	-0.2727701730163731	-0.24827658043069142	2.0643794421865964	-0.5547017193523917	-0.19805846561910034	2.057466906746937	-0.6426714165330664	-0.20697511483405254	2.116238202893644	-0.6305816956548252
74	2.466666666666667	-0.26880455425015454	1.8841807962221724	-0.467402280037402	-0.2804656465247654	1.880061941324989	-0.39577208953560183	-0.2952877413608756	1.7277774476439676	-0.39314781465347226	-0.3253419440551463	1.6376402949621547	-0.3925026617256155							-0.32988924717562884	1.6304664250452898	-0.4142773109011478	-0.253933911936549	1.8895776636072728	-0.5326023230693664	-0.2551138171414463	1.726770319911898	-0.5654880473351255													-0.2705109238031605	2.050408487355515	-0.45305989099378213	-0.2656878968777389	2.123219224755879	-0.4346413899016729	-0.29358598551259063	2.0375359973476086	-0.36384910766923134	-0.29824379501660137	2.0405841849920128	-0.20228574862192367	-0.3027447002716317	2.101610688277504	-0.26655081347852494	-0.24939642161014808	2.062076281843654	-0.5403871903139067	-0.19626113526197075	2.0640280389709793	-0.6382886524277507	-0.2071410472828525	2.1213953310389395	-0.6221055650388287
75	2.5	-0.2720579618202029	1.881548676379696	-0.45949032334273593	-0.2815904324068434	1.8753976013238038	-0.3897280103795112	-0.2952877413608756	1.7277774476439676	-0.39314781465347226	-0.3253419440551463	1.6376402949621547	-0.3925026617256155							-0.32988924717562884	1.6304664250452898	-0.4142773109011478	-0.2552444840218689	1.8857861542141623	-0.5266993143624247	-0.2606737236152918	1.7322159373167538	-0.5612079026904964													-0.27705742814427886	2.0504401289780643	-0.4414285840694039	-0.26747966615322927	2.1217583518386016	-0.42443192784755557	-0.2950886475319349	2.0373383447970657	-0.35335933319770507	-0.30268618629185196	2.032077271819224	-0.18524022000986895	-0.2957249645953887	2.1008542164877433	-0.22647127342083384	-0.25159834195390957	2.061575187218198	-0.5298107941717743	-0.20117145251776608	2.0529286162624927	-0.6330427088504015	-0.20512136221686164	2.115152066499135	-0.6238401485616164
76	2.533333333333333	-0.2750789094500178	1.8828202176852262	-0.45215115409778195	-0.28562128790798	1.8774596837224033	-0.38575181957186633	-0.2952877413608756	1.7277774476439676	-0.39314781465347226	-0.3253419440551463	1.6376402949621547	-0.3925026617256155							-0.32988924717562884	1.6304664250452898	-0.4142773109011478	-0.25944978675717284	1.8877455806000811	-0.522690950973498	-0.26263146747152216	1.7310563183400864	-0.5590086311289186													-0.2800839400787316	2.053188792917007	-0.4433888979250766	-0.2663820713854109	2.122757927912502	-0.4211791753754706	-0.2999771249915753	2.038665608002248	-0.35287737547410936	-0.3154217037531302	2.0161251545403154	-0.19491759567055147	-0.2931671107736457	2.0751606063670023	-0.1706139600884774	-0.2536201339845174	2.0628873048276333	-0.5283110627071542	-0.2024124103943949	2.0555371705510423	-0.6208085061945062	-0.19567405428000026	2.126178667762222	-0.6160807084071881
77	2.566666666666667	-0.2778743790149097	1.8869419846231619	-0.4536855742060618	-0.290201296854654	1.8798533175193575	-0.3850681088539393	-0.2952877413608756	1.7277774476439676	-0.39314781465347226	-0.3253419440551463	1.6376402949621547	-0.3925026617256155							-0.32988924717562884	1.6304664250452898	-0.4142773109011478	-0.26117588444010986	1.8925515101957149	-0.5211194997667427	-0.26326856359274187	1.7304542772691203	-0.5611732312769647													-0.28009182616430883	2.0545308590414137	-0.4432159973827047	-0.26643142731402547	2.1226963561429053	-0.42097276994305105	-0.30167240315644805	2.0407769277948558	-0.350602437511054	-0.32652771305989575	2.005420805719648	-0.23478776201157467	-0.3206253649225997	2.02557014815997	-0.15882418812645646	-0.25656378206805336	2.067045272469954	-0.5300599035262127	-0.21133595811821487	2.0234700470399027	-0.6326159099029417	-0.19896918455364196	2.0725936668811995	-0.6177772395760233
78	2.6	-0.27478882022873136	1.8839319720541907	-0.4520011409722528	-0.28876553659581633	1.8774917268977722	-0.38148109740595854	-0.2952877413608756	1.7277774476439676	-0.39314781465347226	-0.3253419440551463	1.6376402949621547	-0.3925026617256155							-0.32988924717562884	1.6304664250452898	-0.4142773109011478	-0.2608183467350986	1.8882892121832333	-0.5203641002479865	-0.2639056597139616	1.7298522361981539	-0.5633378314250109													-0.28011941576324684	2.0530918141363226	-0.44269962802892926	-0.2671965146967173	2.1210888350665433	-0.41534478326426066	-0.2998664855927743	2.039319277177836	-0.3521194273175892	-0.3092932519182112	2.0018071381762264	-0.2483456434006944	-0.30459837959993175	1.9856436206591332	-0.16490928321620704	-0.2595952823242121	2.0668851164921342	-0.5309926221812007	-0.22527080487993945	2.015522292039872	-0.602842749198313	-0.20226431482728366	2.0190086660001776	-0.6194737707448583
